<svg width="353" height="68" viewBox="0 0 353 68" fill="none" xmlns="http://www.w3.org/2000/svg">
<path d="M96.0227 7.72727H102.091L108.5 23.3636H108.773L115.182 7.72727H121.25V31H116.477V15.8523H116.284L110.261 30.8864H107.011L100.989 15.7955H100.795V31H96.0227V7.72727ZM125.213 31V13.5455H130.054V31H125.213ZM127.645 11.2955C126.925 11.2955 126.308 11.0568 125.793 10.5795C125.285 10.0947 125.031 9.51515 125.031 8.84091C125.031 8.17424 125.285 7.60227 125.793 7.125C126.308 6.64015 126.925 6.39773 127.645 6.39773C128.365 6.39773 128.978 6.64015 129.486 7.125C130.001 7.60227 130.259 8.17424 130.259 8.84091C130.259 9.51515 130.001 10.0947 129.486 10.5795C128.978 11.0568 128.365 11.2955 127.645 11.2955ZM148.455 18.5227L144.023 18.7955C143.947 18.4167 143.784 18.0758 143.534 17.7727C143.284 17.4621 142.955 17.2159 142.545 17.0341C142.144 16.8447 141.663 16.75 141.102 16.75C140.352 16.75 139.72 16.9091 139.205 17.2273C138.689 17.5379 138.432 17.9545 138.432 18.4773C138.432 18.8939 138.598 19.2462 138.932 19.5341C139.265 19.822 139.837 20.053 140.648 20.2273L143.807 20.8636C145.504 21.2121 146.769 21.7727 147.602 22.5455C148.436 23.3182 148.852 24.3333 148.852 25.5909C148.852 26.7348 148.515 27.7386 147.841 28.6023C147.174 29.4659 146.258 30.1402 145.091 30.625C143.932 31.1023 142.595 31.3409 141.08 31.3409C138.769 31.3409 136.928 30.8598 135.557 29.8977C134.193 28.928 133.394 27.6098 133.159 25.9432L137.92 25.6932C138.064 26.3977 138.413 26.9356 138.966 27.3068C139.519 27.6705 140.227 27.8523 141.091 27.8523C141.939 27.8523 142.621 27.6894 143.136 27.3636C143.659 27.0303 143.924 26.6023 143.932 26.0795C143.924 25.6402 143.739 25.2803 143.375 25C143.011 24.7121 142.451 24.4924 141.693 24.3409L138.67 23.7386C136.966 23.3977 135.697 22.8068 134.864 21.9659C134.038 21.125 133.625 20.053 133.625 18.75C133.625 17.6288 133.928 16.6629 134.534 15.8523C135.148 15.0417 136.008 14.4167 137.114 13.9773C138.227 13.5379 139.53 13.3182 141.023 13.3182C143.227 13.3182 144.962 13.7841 146.227 14.7159C147.5 15.6477 148.242 16.9167 148.455 18.5227ZM156.878 31.3295C155.764 31.3295 154.772 31.1364 153.901 30.75C153.029 30.3561 152.34 29.7765 151.832 29.0114C151.332 28.2386 151.082 27.2765 151.082 26.125C151.082 25.1553 151.26 24.3409 151.616 23.6818C151.973 23.0227 152.457 22.4924 153.071 22.0909C153.685 21.6894 154.382 21.3864 155.162 21.1818C155.95 20.9773 156.776 20.8333 157.639 20.75C158.654 20.6439 159.473 20.5455 160.094 20.4545C160.715 20.3561 161.166 20.2121 161.446 20.0227C161.726 19.8333 161.866 19.553 161.866 19.1818V19.1136C161.866 18.3939 161.639 17.8371 161.185 17.4432C160.738 17.0492 160.101 16.8523 159.276 16.8523C158.404 16.8523 157.711 17.0455 157.196 17.4318C156.681 17.8106 156.34 18.2879 156.173 18.8636L151.696 18.5C151.923 17.4394 152.37 16.5227 153.037 15.75C153.704 14.9697 154.563 14.3712 155.616 13.9545C156.677 13.5303 157.904 13.3182 159.298 13.3182C160.268 13.3182 161.196 13.4318 162.082 13.6591C162.976 13.8864 163.768 14.2386 164.457 14.7159C165.154 15.1932 165.704 15.8068 166.105 16.5568C166.507 17.2992 166.707 18.1894 166.707 19.2273V31H162.116V28.5795H161.98C161.7 29.125 161.325 29.6061 160.855 30.0227C160.385 30.4318 159.821 30.7538 159.162 30.9886C158.503 31.2159 157.741 31.3295 156.878 31.3295ZM158.264 27.9886C158.976 27.9886 159.605 27.8485 160.151 27.5682C160.696 27.2803 161.124 26.8939 161.435 26.4091C161.745 25.9242 161.901 25.375 161.901 24.7614V22.9091C161.749 23.0076 161.541 23.0985 161.276 23.1818C161.018 23.2576 160.726 23.3295 160.401 23.3977C160.075 23.4583 159.749 23.5152 159.423 23.5682C159.098 23.6136 158.802 23.6553 158.537 23.6932C157.969 23.7765 157.473 23.9091 157.048 24.0909C156.624 24.2727 156.295 24.5189 156.06 24.8295C155.825 25.1326 155.707 25.5114 155.707 25.9659C155.707 26.625 155.946 27.1288 156.423 27.4773C156.908 27.8182 157.522 27.9886 158.264 27.9886ZM174.849 25.9773L174.861 20.1705H175.565L181.156 13.5455H186.713L179.202 22.3182H178.054L174.849 25.9773ZM170.463 31V7.72727H175.304V31H170.463ZM181.372 31L176.236 23.3977L179.463 19.9773L187.043 31H181.372ZM194.065 31.3295C192.952 31.3295 191.959 31.1364 191.088 30.75C190.217 30.3561 189.527 29.7765 189.02 29.0114C188.52 28.2386 188.27 27.2765 188.27 26.125C188.27 25.1553 188.448 24.3409 188.804 23.6818C189.16 23.0227 189.645 22.4924 190.259 22.0909C190.872 21.6894 191.569 21.3864 192.349 21.1818C193.137 20.9773 193.963 20.8333 194.827 20.75C195.842 20.6439 196.66 20.5455 197.281 20.4545C197.902 20.3561 198.353 20.2121 198.634 20.0227C198.914 19.8333 199.054 19.553 199.054 19.1818V19.1136C199.054 18.3939 198.827 17.8371 198.372 17.4432C197.925 17.0492 197.289 16.8523 196.463 16.8523C195.592 16.8523 194.899 17.0455 194.384 17.4318C193.868 17.8106 193.527 18.2879 193.361 18.8636L188.884 18.5C189.111 17.4394 189.558 16.5227 190.224 15.75C190.891 14.9697 191.751 14.3712 192.804 13.9545C193.865 13.5303 195.092 13.3182 196.486 13.3182C197.455 13.3182 198.384 13.4318 199.27 13.6591C200.164 13.8864 200.955 14.2386 201.645 14.7159C202.342 15.1932 202.891 15.8068 203.293 16.5568C203.694 17.2992 203.895 18.1894 203.895 19.2273V31H199.304V28.5795H199.168C198.887 29.125 198.512 29.6061 198.043 30.0227C197.573 30.4318 197.009 30.7538 196.349 30.9886C195.69 31.2159 194.929 31.3295 194.065 31.3295ZM195.452 27.9886C196.164 27.9886 196.793 27.8485 197.338 27.5682C197.884 27.2803 198.312 26.8939 198.622 26.4091C198.933 25.9242 199.088 25.375 199.088 24.7614V22.9091C198.937 23.0076 198.728 23.0985 198.463 23.1818C198.205 23.2576 197.914 23.3295 197.588 23.3977C197.262 23.4583 196.937 23.5152 196.611 23.5682C196.285 23.6136 195.99 23.6553 195.724 23.6932C195.156 23.7765 194.66 23.9091 194.236 24.0909C193.812 24.2727 193.482 24.5189 193.247 24.8295C193.012 25.1326 192.895 25.5114 192.895 25.9659C192.895 26.625 193.134 27.1288 193.611 27.4773C194.096 27.8182 194.709 27.9886 195.452 27.9886ZM207.741 31V7.72727H217.06C218.772 7.72727 220.2 7.98106 221.344 8.48864C222.488 8.99621 223.348 9.70076 223.923 10.6023C224.499 11.4962 224.787 12.5265 224.787 13.6932C224.787 14.6023 224.605 15.4015 224.241 16.0909C223.878 16.7727 223.378 17.3333 222.741 17.7727C222.113 18.2045 221.393 18.5114 220.582 18.6932V18.9205C221.469 18.9583 222.298 19.2083 223.071 19.6705C223.851 20.1326 224.484 20.7803 224.969 21.6136C225.454 22.4394 225.696 23.4242 225.696 24.5682C225.696 25.803 225.389 26.9053 224.776 27.875C224.17 28.8371 223.272 29.5985 222.082 30.1591C220.893 30.7197 219.427 31 217.685 31H207.741ZM212.662 26.9773H216.673C218.045 26.9773 219.045 26.7159 219.673 26.1932C220.302 25.6629 220.616 24.9583 220.616 24.0795C220.616 23.4356 220.461 22.8674 220.151 22.375C219.84 21.8826 219.397 21.4962 218.821 21.2159C218.253 20.9356 217.575 20.7955 216.787 20.7955H212.662V26.9773ZM212.662 17.4659H216.31C216.984 17.4659 217.582 17.3485 218.105 17.1136C218.635 16.8712 219.052 16.5303 219.355 16.0909C219.666 15.6515 219.821 15.125 219.821 14.5114C219.821 13.6705 219.522 12.9924 218.923 12.4773C218.332 11.9621 217.491 11.7045 216.401 11.7045H212.662V17.4659ZM236.693 31.3409C234.928 31.3409 233.402 30.9659 232.114 30.2159C230.833 29.4583 229.845 28.4053 229.148 27.0568C228.451 25.7008 228.102 24.1288 228.102 22.3409C228.102 20.5379 228.451 18.9621 229.148 17.6136C229.845 16.2576 230.833 15.2045 232.114 14.4545C233.402 13.697 234.928 13.3182 236.693 13.3182C238.458 13.3182 239.981 13.697 241.261 14.4545C242.549 15.2045 243.542 16.2576 244.239 17.6136C244.936 18.9621 245.284 20.5379 245.284 22.3409C245.284 24.1288 244.936 25.7008 244.239 27.0568C243.542 28.4053 242.549 29.4583 241.261 30.2159C239.981 30.9659 238.458 31.3409 236.693 31.3409ZM236.716 27.5909C237.519 27.5909 238.189 27.3636 238.727 26.9091C239.265 26.447 239.67 25.8182 239.943 25.0227C240.223 24.2273 240.364 23.322 240.364 22.3068C240.364 21.2917 240.223 20.3864 239.943 19.5909C239.67 18.7955 239.265 18.1667 238.727 17.7045C238.189 17.2424 237.519 17.0114 236.716 17.0114C235.905 17.0114 235.223 17.2424 234.67 17.7045C234.125 18.1667 233.712 18.7955 233.432 19.5909C233.159 20.3864 233.023 21.2917 233.023 22.3068C233.023 23.322 233.159 24.2273 233.432 25.0227C233.712 25.8182 234.125 26.447 234.67 26.9091C235.223 27.3636 235.905 27.5909 236.716 27.5909ZM257.716 13.5455V17.1818H247.205V13.5455H257.716ZM249.591 9.36364H254.432V25.6364C254.432 26.0833 254.5 26.4318 254.636 26.6818C254.773 26.9242 254.962 27.0947 255.205 27.1932C255.455 27.2917 255.742 27.3409 256.068 27.3409C256.295 27.3409 256.523 27.322 256.75 27.2841C256.977 27.2386 257.152 27.2045 257.273 27.1818L258.034 30.7841C257.792 30.8598 257.451 30.947 257.011 31.0455C256.572 31.1515 256.038 31.2159 255.409 31.2386C254.242 31.2841 253.22 31.1288 252.341 30.7727C251.47 30.4167 250.792 29.8636 250.307 29.1136C249.822 28.3636 249.583 27.4167 249.591 26.2727V9.36364Z" fill="url(#paint0_linear_1_4)"/>
<path d="M13.4718 48.4545V63H11.128L4.27433 53.0923H4.15359V63H1.51864V48.4545H3.8766L10.7232 58.3693H10.851V48.4545H13.4718ZM21.0588 63.2131C19.965 63.2131 19.0204 62.9858 18.225 62.5312C17.4342 62.072 16.8258 61.4233 16.3997 60.5852C15.9735 59.7424 15.7605 58.7505 15.7605 57.6094C15.7605 56.4872 15.9735 55.5024 16.3997 54.6548C16.8306 53.8026 17.4319 53.1397 18.2037 52.6662C18.9754 52.188 19.8822 51.9489 20.9238 51.9489C21.5962 51.9489 22.2306 52.0578 22.8272 52.2756C23.4286 52.4886 23.9589 52.8201 24.4181 53.2699C24.8822 53.7197 25.2467 54.2926 25.5119 54.9886C25.777 55.6799 25.9096 56.5038 25.9096 57.4602V58.2486H16.9679V56.5156H23.4451C23.4404 56.0232 23.3339 55.5852 23.1255 55.2017C22.9172 54.8134 22.626 54.508 22.252 54.2855C21.8826 54.063 21.4518 53.9517 20.9593 53.9517C20.4338 53.9517 19.9721 54.0795 19.5744 54.3352C19.1767 54.5862 18.8665 54.9176 18.644 55.3295C18.4262 55.7367 18.3149 56.1842 18.3102 56.6719V58.1847C18.3102 58.8191 18.4262 59.3636 18.6582 59.8182C18.8902 60.268 19.2145 60.6136 19.6312 60.8551C20.0479 61.0919 20.5356 61.2102 21.0943 61.2102C21.4683 61.2102 21.8069 61.1581 22.1099 61.054C22.4129 60.9451 22.6757 60.7865 22.8983 60.5781C23.1208 60.3698 23.2889 60.1117 23.4025 59.804L25.8031 60.0739C25.6516 60.7083 25.3627 61.2623 24.9366 61.7358C24.5152 62.2045 23.9754 62.5691 23.3173 62.8295C22.6592 63.0852 21.9063 63.2131 21.0588 63.2131ZM29.9526 52.0909L32.1543 56.1179L34.3915 52.0909H37.1117L33.8233 57.5455L37.1685 63H34.4625L32.1543 59.0724L29.8674 63H27.1401L30.464 57.5455L27.2253 52.0909H29.9526ZM44.5478 52.0909V54.0795H38.2765V52.0909H44.5478ZM39.8248 49.4773H42.3958V59.7188C42.3958 60.0644 42.4479 60.3295 42.552 60.5142C42.6609 60.6941 42.803 60.8172 42.9782 60.8835C43.1534 60.9498 43.3475 60.983 43.5605 60.983C43.7215 60.983 43.8683 60.9711 44.0009 60.9474C44.1382 60.9238 44.2424 60.9025 44.3134 60.8835L44.7466 62.8935C44.6093 62.9408 44.4128 62.9929 44.1571 63.0497C43.9062 63.1065 43.5984 63.1397 43.2338 63.1491C42.5899 63.1681 42.0099 63.071 41.4938 62.858C40.9777 62.6402 40.5681 62.304 40.2651 61.8494C39.9668 61.3949 39.82 60.8267 39.8248 60.1449V49.4773ZM61.5169 53.0994C61.3985 52.7159 61.2351 52.3726 61.0268 52.0696C60.8232 51.7618 60.577 51.4991 60.2882 51.2812C60.0041 51.0634 59.6774 50.9001 59.3081 50.7912C58.9387 50.6776 58.5363 50.6207 58.1007 50.6207C57.3194 50.6207 56.6234 50.8172 56.0126 51.2102C55.4018 51.6032 54.9212 52.1809 54.5708 52.9432C54.2252 53.7008 54.0524 54.6241 54.0524 55.7131C54.0524 56.8116 54.2252 57.742 54.5708 58.5043C54.9165 59.2666 55.3971 59.8466 56.0126 60.2443C56.6281 60.6373 57.3431 60.8338 58.1575 60.8338C58.8961 60.8338 59.5353 60.6918 60.0751 60.4077C60.6196 60.1236 61.0386 59.7211 61.3322 59.2003C61.6258 58.6747 61.7726 58.0592 61.7726 57.3537L62.3691 57.446H58.4203V55.3864H64.3223V57.1335C64.3223 58.3788 64.0571 59.456 63.5268 60.3651C62.9965 61.2741 62.2673 61.9749 61.3393 62.4673C60.4113 62.955 59.3459 63.1989 58.1433 63.1989C56.8033 63.1989 55.6267 62.8982 54.6135 62.2969C53.6049 61.6908 52.8166 60.8314 52.2484 59.7188C51.685 58.6013 51.4032 57.2756 51.4032 55.7415C51.4032 54.5672 51.569 53.5185 51.9004 52.5952C52.2366 51.6719 52.7053 50.8883 53.3066 50.2443C53.908 49.5956 54.6135 49.1032 55.4231 48.767C56.2328 48.4261 57.1135 48.2557 58.0652 48.2557C58.8701 48.2557 59.6206 48.3741 60.3166 48.6108C61.0126 48.8428 61.6305 49.1742 62.1703 49.6051C62.7148 50.036 63.1622 50.5473 63.5126 51.1392C63.863 51.7311 64.0926 52.3845 64.2015 53.0994H61.5169ZM71.5861 63.2131C70.4924 63.2131 69.5478 62.9858 68.7523 62.5312C67.9616 62.072 67.3532 61.4233 66.927 60.5852C66.5009 59.7424 66.2878 58.7505 66.2878 57.6094C66.2878 56.4872 66.5009 55.5024 66.927 54.6548C67.3579 53.8026 67.9592 53.1397 68.731 52.6662C69.5028 52.188 70.4095 51.9489 71.4512 51.9489C72.1235 51.9489 72.758 52.0578 73.3546 52.2756C73.9559 52.4886 74.4862 52.8201 74.9455 53.2699C75.4095 53.7197 75.7741 54.2926 76.0392 54.9886C76.3044 55.6799 76.437 56.5038 76.437 57.4602V58.2486H67.4952V56.5156H73.9725C73.9677 56.0232 73.8612 55.5852 73.6529 55.2017C73.4445 54.8134 73.1534 54.508 72.7793 54.2855C72.41 54.063 71.9791 53.9517 71.4867 53.9517C70.9611 53.9517 70.4995 54.0795 70.1017 54.3352C69.704 54.5862 69.3939 54.9176 69.1713 55.3295C68.9535 55.7367 68.8423 56.1842 68.8375 56.6719V58.1847C68.8375 58.8191 68.9535 59.3636 69.1855 59.8182C69.4176 60.268 69.7419 60.6136 70.1586 60.8551C70.5752 61.0919 71.0629 61.2102 71.6216 61.2102C71.9957 61.2102 72.3342 61.1581 72.6373 61.054C72.9403 60.9451 73.2031 60.7865 73.4256 60.5781C73.6481 60.3698 73.8162 60.1117 73.9299 59.804L76.3304 60.0739C76.1789 60.7083 75.8901 61.2623 75.464 61.7358C75.0426 62.2045 74.5028 62.5691 73.8446 62.8295C73.1865 63.0852 72.4337 63.2131 71.5861 63.2131ZM81.1831 56.608V63H78.612V52.0909H81.0694V53.9446H81.1973C81.4482 53.3338 81.8483 52.8485 82.3975 52.4886C82.9515 52.1288 83.6357 51.9489 84.4501 51.9489C85.2029 51.9489 85.8587 52.1098 86.4174 52.4318C86.9809 52.7538 87.4165 53.2202 87.7243 53.831C88.0368 54.4418 88.1906 55.1828 88.1859 56.054V63H85.6149V56.4517C85.6149 55.7225 85.4255 55.152 85.0467 54.7401C84.6726 54.3281 84.1542 54.1222 83.4913 54.1222C83.0415 54.1222 82.6414 54.2216 82.291 54.4205C81.9454 54.6146 81.6731 54.8963 81.4743 55.2656C81.2801 55.6349 81.1831 56.0824 81.1831 56.608ZM95.6291 63.2131C94.5353 63.2131 93.5907 62.9858 92.7953 62.5312C92.0046 62.072 91.3961 61.4233 90.97 60.5852C90.5439 59.7424 90.3308 58.7505 90.3308 57.6094C90.3308 56.4872 90.5439 55.5024 90.97 54.6548C91.4009 53.8026 92.0022 53.1397 92.774 52.6662C93.5458 52.188 94.4525 51.9489 95.4941 51.9489C96.1665 51.9489 96.801 52.0578 97.3975 52.2756C97.9989 52.4886 98.5292 52.8201 98.9885 53.2699C99.4525 53.7197 99.8171 54.2926 100.082 54.9886C100.347 55.6799 100.48 56.5038 100.48 57.4602V58.2486H91.5382V56.5156H98.0154C98.0107 56.0232 97.9042 55.5852 97.6958 55.2017C97.4875 54.8134 97.1963 54.508 96.8223 54.2855C96.4529 54.063 96.0221 53.9517 95.5297 53.9517C95.0041 53.9517 94.5424 54.0795 94.1447 54.3352C93.747 54.5862 93.4368 54.9176 93.2143 55.3295C92.9965 55.7367 92.8852 56.1842 92.8805 56.6719V58.1847C92.8805 58.8191 92.9965 59.3636 93.2285 59.8182C93.4605 60.268 93.7849 60.6136 94.2015 60.8551C94.6182 61.0919 95.1059 61.2102 95.6646 61.2102C96.0386 61.2102 96.3772 61.1581 96.6802 61.054C96.9833 60.9451 97.246 60.7865 97.4686 60.5781C97.6911 60.3698 97.8592 60.1117 97.9728 59.804L100.373 60.0739C100.222 60.7083 99.9331 61.2623 99.5069 61.7358C99.0855 62.2045 98.5458 62.5691 97.8876 62.8295C97.2295 63.0852 96.4766 63.2131 95.6291 63.2131ZM102.655 63V52.0909H105.148V53.9091H105.262C105.46 53.2794 105.801 52.794 106.284 52.4531C106.772 52.1075 107.328 51.9347 107.953 51.9347C108.095 51.9347 108.254 51.9418 108.429 51.956C108.609 51.9654 108.758 51.982 108.877 52.0057V54.3707C108.768 54.3329 108.595 54.2997 108.358 54.2713C108.126 54.2382 107.901 54.2216 107.683 54.2216C107.215 54.2216 106.793 54.3234 106.419 54.527C106.05 54.7259 105.759 55.0028 105.546 55.358C105.333 55.7131 105.226 56.1226 105.226 56.5866V63H102.655ZM113.529 63.2202C112.837 63.2202 112.215 63.0971 111.661 62.8509C111.111 62.5999 110.676 62.2306 110.354 61.7429C110.037 61.2552 109.878 60.6539 109.878 59.9389C109.878 59.3234 109.992 58.8144 110.219 58.4119C110.446 58.0095 110.756 57.6875 111.149 57.446C111.542 57.2045 111.985 57.0223 112.477 56.8991C112.975 56.7713 113.488 56.679 114.019 56.6222C114.658 56.5559 115.176 56.4967 115.574 56.4446C115.972 56.3878 116.261 56.3026 116.441 56.1889C116.625 56.0705 116.718 55.8883 116.718 55.642V55.5994C116.718 55.0644 116.559 54.6501 116.242 54.3565C115.924 54.063 115.468 53.9162 114.871 53.9162C114.241 53.9162 113.742 54.0535 113.372 54.3281C113.008 54.6027 112.762 54.9271 112.634 55.3011L110.233 54.9602C110.423 54.2973 110.735 53.7434 111.171 53.2983C111.606 52.8485 112.139 52.5123 112.769 52.2898C113.398 52.0625 114.094 51.9489 114.857 51.9489C115.382 51.9489 115.905 52.0104 116.426 52.1335C116.947 52.2566 117.423 52.4602 117.854 52.7443C118.285 53.0237 118.63 53.4048 118.891 53.8878C119.156 54.3707 119.289 54.9744 119.289 55.6989V63H116.817V61.5014H116.732C116.575 61.8045 116.355 62.0885 116.071 62.3537C115.792 62.6141 115.439 62.8248 115.013 62.9858C114.592 63.142 114.097 63.2202 113.529 63.2202ZM114.196 61.331C114.712 61.331 115.16 61.2292 115.539 61.0256C115.917 60.8172 116.209 60.5426 116.412 60.2017C116.62 59.8608 116.725 59.4891 116.725 59.0866V57.8011C116.644 57.8674 116.507 57.929 116.313 57.9858C116.123 58.0426 115.91 58.0923 115.673 58.1349C115.437 58.1776 115.202 58.2154 114.97 58.2486C114.738 58.2817 114.537 58.3101 114.367 58.3338C113.983 58.3859 113.64 58.4711 113.337 58.5895C113.034 58.7079 112.795 58.8736 112.619 59.0866C112.444 59.295 112.357 59.5649 112.357 59.8963C112.357 60.3698 112.53 60.7273 112.875 60.9688C113.221 61.2102 113.661 61.331 114.196 61.331ZM127.321 52.0909V54.0795H121.05V52.0909H127.321ZM122.598 49.4773H125.169V59.7188C125.169 60.0644 125.221 60.3295 125.325 60.5142C125.434 60.6941 125.576 60.8172 125.752 60.8835C125.927 60.9498 126.121 60.983 126.334 60.983C126.495 60.983 126.642 60.9711 126.774 60.9474C126.912 60.9238 127.016 60.9025 127.087 60.8835L127.52 62.8935C127.383 62.9408 127.186 62.9929 126.931 63.0497C126.68 63.1065 126.372 63.1397 126.007 63.1491C125.363 63.1681 124.783 63.071 124.267 62.858C123.751 62.6402 123.342 62.304 123.039 61.8494C122.74 61.3949 122.593 60.8267 122.598 60.1449V49.4773ZM129.471 63V52.0909H132.042V63H129.471ZM130.764 50.5426C130.357 50.5426 130.006 50.4077 129.713 50.1378C129.419 49.8632 129.273 49.5341 129.273 49.1506C129.273 48.7623 129.419 48.4332 129.713 48.1634C130.006 47.8887 130.357 47.7514 130.764 47.7514C131.176 47.7514 131.526 47.8887 131.815 48.1634C132.109 48.4332 132.256 48.7623 132.256 49.1506C132.256 49.5341 132.109 49.8632 131.815 50.1378C131.526 50.4077 131.176 50.5426 130.764 50.5426ZM139.445 63.2131C138.379 63.2131 137.456 62.9787 136.675 62.5099C135.894 62.0412 135.288 61.3854 134.857 60.5426C134.431 59.6998 134.218 58.715 134.218 57.5881C134.218 56.4612 134.431 55.474 134.857 54.6264C135.288 53.7789 135.894 53.1207 136.675 52.652C137.456 52.1832 138.379 51.9489 139.445 51.9489C140.51 51.9489 141.433 52.1832 142.215 52.652C142.996 53.1207 143.6 53.7789 144.026 54.6264C144.457 55.474 144.672 56.4612 144.672 57.5881C144.672 58.715 144.457 59.6998 144.026 60.5426C143.6 61.3854 142.996 62.0412 142.215 62.5099C141.433 62.9787 140.51 63.2131 139.445 63.2131ZM139.459 61.1534C140.037 61.1534 140.52 60.9948 140.908 60.6776C141.296 60.3556 141.585 59.9247 141.774 59.3849C141.968 58.8452 142.066 58.2438 142.066 57.581C142.066 56.9134 141.968 56.3097 141.774 55.7699C141.585 55.2254 141.296 54.7921 140.908 54.4702C140.52 54.1482 140.037 53.9872 139.459 53.9872C138.867 53.9872 138.375 54.1482 137.982 54.4702C137.593 54.7921 137.302 55.2254 137.108 55.7699C136.919 56.3097 136.824 56.9134 136.824 57.581C136.824 58.2438 136.919 58.8452 137.108 59.3849C137.302 59.9247 137.593 60.3556 137.982 60.6776C138.375 60.9948 138.867 61.1534 139.459 61.1534ZM149.425 56.608V63H146.854V52.0909H149.312V53.9446H149.439C149.69 53.3338 150.09 52.8485 150.64 52.4886C151.194 52.1288 151.878 51.9489 152.692 51.9489C153.445 51.9489 154.101 52.1098 154.66 52.4318C155.223 52.7538 155.659 53.2202 155.966 53.831C156.279 54.4418 156.433 55.1828 156.428 56.054V63H153.857V56.4517C153.857 55.7225 153.668 55.152 153.289 54.7401C152.915 54.3281 152.396 54.1222 151.733 54.1222C151.284 54.1222 150.884 54.2216 150.533 54.4205C150.188 54.6146 149.915 54.8963 149.716 55.2656C149.522 55.6349 149.425 56.0824 149.425 56.608ZM164.116 63V48.4545H169.684C170.736 48.4545 171.609 48.6203 172.305 48.9517C173.006 49.2784 173.529 49.7259 173.875 50.294C174.225 50.8622 174.4 51.5062 174.4 52.2259C174.4 52.8177 174.287 53.3243 174.059 53.7457C173.832 54.1624 173.527 54.5009 173.143 54.7614C172.76 55.0218 172.331 55.2088 171.858 55.3224V55.4645C172.374 55.4929 172.869 55.6515 173.342 55.9403C173.82 56.2244 174.211 56.6269 174.514 57.1477C174.817 57.6686 174.969 58.2983 174.969 59.0369C174.969 59.7898 174.786 60.4669 174.422 61.0682C174.057 61.6648 173.508 62.1359 172.774 62.4815C172.04 62.8272 171.117 63 170.004 63H164.116ZM166.751 60.7983H169.585C170.541 60.7983 171.23 60.616 171.652 60.2514C172.078 59.8821 172.291 59.4086 172.291 58.831C172.291 58.4001 172.184 58.0118 171.971 57.6662C171.758 57.3158 171.455 57.0412 171.062 56.8423C170.669 56.6387 170.201 56.5369 169.656 56.5369H166.751V60.7983ZM166.751 54.6406H169.358C169.812 54.6406 170.222 54.5578 170.586 54.392C170.951 54.2216 171.238 53.9825 171.446 53.6747C171.659 53.3622 171.765 52.9929 171.765 52.5668C171.765 52.0033 171.567 51.5393 171.169 51.1747C170.776 50.8101 170.191 50.6278 169.415 50.6278H166.751V54.6406ZM181.906 63.2131C180.84 63.2131 179.917 62.9787 179.136 62.5099C178.355 62.0412 177.749 61.3854 177.318 60.5426C176.892 59.6998 176.678 58.715 176.678 57.5881C176.678 56.4612 176.892 55.474 177.318 54.6264C177.749 53.7789 178.355 53.1207 179.136 52.652C179.917 52.1832 180.84 51.9489 181.906 51.9489C182.971 51.9489 183.894 52.1832 184.676 52.652C185.457 53.1207 186.061 53.7789 186.487 54.6264C186.918 55.474 187.133 56.4612 187.133 57.5881C187.133 58.715 186.918 59.6998 186.487 60.5426C186.061 61.3854 185.457 62.0412 184.676 62.5099C183.894 62.9787 182.971 63.2131 181.906 63.2131ZM181.92 61.1534C182.498 61.1534 182.981 60.9948 183.369 60.6776C183.757 60.3556 184.046 59.9247 184.235 59.3849C184.429 58.8452 184.526 58.2438 184.526 57.581C184.526 56.9134 184.429 56.3097 184.235 55.7699C184.046 55.2254 183.757 54.7921 183.369 54.4702C182.981 54.1482 182.498 53.9872 181.92 53.9872C181.328 53.9872 180.836 54.1482 180.443 54.4702C180.054 54.7921 179.763 55.2254 179.569 55.7699C179.38 56.3097 179.285 56.9134 179.285 57.581C179.285 58.2438 179.38 58.8452 179.569 59.3849C179.763 59.9247 180.054 60.3556 180.443 60.6776C180.836 60.9948 181.328 61.1534 181.92 61.1534ZM194.763 52.0909V54.0795H188.491V52.0909H194.763ZM190.04 49.4773H192.611V59.7188C192.611 60.0644 192.663 60.3295 192.767 60.5142C192.876 60.6941 193.018 60.8172 193.193 60.8835C193.368 60.9498 193.562 60.983 193.775 60.983C193.936 60.983 194.083 60.9711 194.216 60.9474C194.353 60.9238 194.457 60.9025 194.528 60.8835L194.961 62.8935C194.824 62.9408 194.628 62.9929 194.372 63.0497C194.121 63.1065 193.813 63.1397 193.449 63.1491C192.805 63.1681 192.225 63.071 191.709 62.858C191.193 62.6402 190.783 62.304 190.48 61.8494C190.182 61.3949 190.035 60.8267 190.04 60.1449V49.4773ZM201.987 63V48.4545H204.558V53.8949H204.665C204.798 53.6297 204.985 53.348 205.226 53.0497C205.468 52.7467 205.794 52.4886 206.206 52.2756C206.618 52.0578 207.144 51.9489 207.783 51.9489C208.626 51.9489 209.386 52.1643 210.063 52.5952C210.744 53.0213 211.284 53.6534 211.682 54.4915C212.084 55.3248 212.286 56.3475 212.286 57.5597C212.286 58.7576 212.089 59.7756 211.696 60.6136C211.303 61.4517 210.768 62.0909 210.091 62.5312C209.414 62.9716 208.647 63.1918 207.79 63.1918C207.165 63.1918 206.646 63.0876 206.235 62.8793C205.823 62.6709 205.491 62.42 205.24 62.1264C204.994 61.8281 204.802 61.5464 204.665 61.2812H204.516V63H201.987ZM204.509 57.5455C204.509 58.2509 204.608 58.8688 204.807 59.3991C205.011 59.9295 205.302 60.3437 205.681 60.642C206.064 60.9356 206.528 61.0824 207.073 61.0824C207.641 61.0824 208.117 60.9309 208.5 60.6278C208.884 60.3201 209.173 59.901 209.367 59.3707C209.566 58.8357 209.665 58.2273 209.665 57.5455C209.665 56.8684 209.568 56.267 209.374 55.7415C209.18 55.2159 208.891 54.804 208.507 54.5057C208.124 54.2074 207.646 54.0582 207.073 54.0582C206.523 54.0582 206.057 54.2027 205.673 54.4915C205.29 54.7803 204.999 55.1851 204.8 55.706C204.606 56.2268 204.509 56.84 204.509 57.5455ZM217.611 63.2202C216.919 63.2202 216.297 63.0971 215.743 62.8509C215.193 62.5999 214.758 62.2306 214.436 61.7429C214.119 61.2552 213.96 60.6539 213.96 59.9389C213.96 59.3234 214.074 58.8144 214.301 58.4119C214.528 58.0095 214.838 57.6875 215.231 57.446C215.624 57.2045 216.067 57.0223 216.559 56.8991C217.057 56.7713 217.57 56.679 218.101 56.6222C218.74 56.5559 219.258 56.4967 219.656 56.4446C220.054 56.3878 220.343 56.3026 220.523 56.1889C220.707 56.0705 220.8 55.8883 220.8 55.642V55.5994C220.8 55.0644 220.641 54.6501 220.324 54.3565C220.006 54.063 219.55 53.9162 218.953 53.9162C218.323 53.9162 217.824 54.0535 217.454 54.3281C217.09 54.6027 216.844 54.9271 216.716 55.3011L214.315 54.9602C214.505 54.2973 214.817 53.7434 215.253 53.2983C215.688 52.8485 216.221 52.5123 216.851 52.2898C217.48 52.0625 218.176 51.9489 218.939 51.9489C219.464 51.9489 219.988 52.0104 220.508 52.1335C221.029 52.2566 221.505 52.4602 221.936 52.7443C222.367 53.0237 222.712 53.4048 222.973 53.8878C223.238 54.3707 223.371 54.9744 223.371 55.6989V63H220.899V61.5014H220.814C220.657 61.8045 220.437 62.0885 220.153 62.3537C219.874 62.6141 219.521 62.8248 219.095 62.9858C218.674 63.142 218.179 63.2202 217.611 63.2202ZM218.278 61.331C218.794 61.331 219.242 61.2292 219.621 61.0256C219.999 60.8172 220.291 60.5426 220.494 60.2017C220.702 59.8608 220.807 59.4891 220.807 59.0866V57.8011C220.726 57.8674 220.589 57.929 220.395 57.9858C220.205 58.0426 219.992 58.0923 219.756 58.1349C219.519 58.1776 219.284 58.2154 219.052 58.2486C218.82 58.2817 218.619 58.3101 218.449 58.3338C218.065 58.3859 217.722 58.4711 217.419 58.5895C217.116 58.7079 216.877 58.8736 216.702 59.0866C216.526 59.295 216.439 59.5649 216.439 59.8963C216.439 60.3698 216.612 60.7273 216.957 60.9688C217.303 61.2102 217.743 61.331 218.278 61.331ZM234.578 54.9744L232.234 55.2301C232.168 54.9934 232.052 54.7708 231.886 54.5625C231.725 54.3542 231.507 54.1861 231.233 54.0582C230.958 53.9304 230.622 53.8665 230.224 53.8665C229.689 53.8665 229.239 53.9825 228.875 54.2145C228.515 54.4465 228.337 54.7472 228.342 55.1165C228.337 55.4337 228.453 55.6918 228.69 55.8906C228.932 56.0895 229.329 56.2528 229.883 56.3807L231.744 56.7784C232.776 57.0009 233.543 57.3537 234.045 57.8366C234.552 58.3196 234.808 58.9517 234.812 59.733C234.808 60.4195 234.606 61.0256 234.209 61.5511C233.816 62.072 233.269 62.4792 232.568 62.7727C231.867 63.0663 231.062 63.2131 230.153 63.2131C228.818 63.2131 227.743 62.9337 226.929 62.375C226.114 61.8116 225.629 61.0279 225.473 60.0241L227.98 59.7827C228.094 60.2751 228.335 60.6468 228.704 60.8977C229.074 61.1487 229.554 61.2741 230.146 61.2741C230.757 61.2741 231.247 61.1487 231.616 60.8977C231.99 60.6468 232.177 60.3366 232.177 59.9673C232.177 59.6548 232.057 59.3968 231.815 59.1932C231.578 58.9896 231.209 58.8333 230.707 58.7244L228.846 58.3338C227.8 58.116 227.026 57.7491 226.524 57.233C226.022 56.7121 225.773 56.054 225.778 55.2585C225.773 54.5862 225.956 54.0038 226.325 53.5114C226.699 53.0142 227.218 52.6307 227.881 52.3608C228.548 52.0862 229.318 51.9489 230.189 51.9489C231.467 51.9489 232.473 52.2211 233.207 52.7656C233.946 53.3101 234.403 54.0464 234.578 54.9744ZM241.762 63.2131C240.668 63.2131 239.724 62.9858 238.928 62.5312C238.137 62.072 237.529 61.4233 237.103 60.5852C236.677 59.7424 236.464 58.7505 236.464 57.6094C236.464 56.4872 236.677 55.5024 237.103 54.6548C237.534 53.8026 238.135 53.1397 238.907 52.6662C239.679 52.188 240.585 51.9489 241.627 51.9489C242.299 51.9489 242.934 52.0578 243.53 52.2756C244.132 52.4886 244.662 52.8201 245.121 53.2699C245.585 53.7197 245.95 54.2926 246.215 54.9886C246.48 55.6799 246.613 56.5038 246.613 57.4602V58.2486H237.671V56.5156H244.148C244.144 56.0232 244.037 55.5852 243.829 55.2017C243.62 54.8134 243.329 54.508 242.955 54.2855C242.586 54.063 242.155 53.9517 241.662 53.9517C241.137 53.9517 240.675 54.0795 240.278 54.3352C239.88 54.5862 239.57 54.9176 239.347 55.3295C239.129 55.7367 239.018 56.1842 239.013 56.6719V58.1847C239.013 58.8191 239.129 59.3636 239.361 59.8182C239.593 60.268 239.918 60.6136 240.334 60.8551C240.751 61.0919 241.239 61.2102 241.797 61.2102C242.171 61.2102 242.51 61.1581 242.813 61.054C243.116 60.9451 243.379 60.7865 243.601 60.5781C243.824 60.3698 243.992 60.1117 244.106 59.804L246.506 60.0739C246.355 60.7083 246.066 61.2623 245.64 61.7358C245.218 62.2045 244.679 62.5691 244.02 62.8295C243.362 63.0852 242.609 63.2131 241.762 63.2131ZM252.836 63.1918C251.979 63.1918 251.212 62.9716 250.535 62.5312C249.858 62.0909 249.323 61.4517 248.93 60.6136C248.537 59.7756 248.34 58.7576 248.34 57.5597C248.34 56.3475 248.539 55.3248 248.937 54.4915C249.339 53.6534 249.882 53.0213 250.563 52.5952C251.245 52.1643 252.005 51.9489 252.843 51.9489C253.482 51.9489 254.008 52.0578 254.42 52.2756C254.832 52.4886 255.159 52.7467 255.4 53.0497C255.642 53.348 255.829 53.6297 255.961 53.8949H256.068V48.4545H258.646V63H256.117V61.2812H255.961C255.829 61.5464 255.637 61.8281 255.386 62.1264C255.135 62.42 254.803 62.6709 254.392 62.8793C253.98 63.0876 253.461 63.1918 252.836 63.1918ZM253.553 61.0824C254.098 61.0824 254.562 60.9356 254.945 60.642C255.329 60.3437 255.62 59.9295 255.819 59.3991C256.018 58.8688 256.117 58.2509 256.117 57.5455C256.117 56.84 256.018 56.2268 255.819 55.706C255.625 55.1851 255.336 54.7803 254.953 54.4915C254.574 54.2027 254.107 54.0582 253.553 54.0582C252.981 54.0582 252.502 54.2074 252.119 54.5057C251.735 54.804 251.446 55.2159 251.252 55.7415C251.058 56.267 250.961 56.8684 250.961 57.5455C250.961 58.2273 251.058 58.8357 251.252 59.3707C251.451 59.901 251.742 60.3201 252.126 60.6278C252.514 60.9309 252.99 61.0824 253.553 61.0824ZM271.105 63.2131C270.04 63.2131 269.116 62.9787 268.335 62.5099C267.554 62.0412 266.948 61.3854 266.517 60.5426C266.091 59.6998 265.878 58.715 265.878 57.5881C265.878 56.4612 266.091 55.474 266.517 54.6264C266.948 53.7789 267.554 53.1207 268.335 52.652C269.116 52.1832 270.04 51.9489 271.105 51.9489C272.17 51.9489 273.094 52.1832 273.875 52.652C274.656 53.1207 275.26 53.7789 275.686 54.6264C276.117 55.474 276.332 56.4612 276.332 57.5881C276.332 58.715 276.117 59.6998 275.686 60.5426C275.26 61.3854 274.656 62.0412 273.875 62.5099C273.094 62.9787 272.17 63.2131 271.105 63.2131ZM271.119 61.1534C271.697 61.1534 272.18 60.9948 272.568 60.6776C272.956 60.3556 273.245 59.9247 273.434 59.3849C273.629 58.8452 273.726 58.2438 273.726 57.581C273.726 56.9134 273.629 56.3097 273.434 55.7699C273.245 55.2254 272.956 54.7921 272.568 54.4702C272.18 54.1482 271.697 53.9872 271.119 53.9872C270.527 53.9872 270.035 54.1482 269.642 54.4702C269.254 54.7921 268.962 55.2254 268.768 55.7699C268.579 56.3097 268.484 56.9134 268.484 57.581C268.484 58.2438 268.579 58.8452 268.768 59.3849C268.962 59.9247 269.254 60.3556 269.642 60.6776C270.035 60.9948 270.527 61.1534 271.119 61.1534ZM281.085 56.608V63H278.514V52.0909H280.972V53.9446H281.1C281.351 53.3338 281.751 52.8485 282.3 52.4886C282.854 52.1288 283.538 51.9489 284.352 51.9489C285.105 51.9489 285.761 52.1098 286.32 52.4318C286.883 52.7538 287.319 53.2202 287.627 53.831C287.939 54.4418 288.093 55.1828 288.088 56.054V63H285.517V56.4517C285.517 55.7225 285.328 55.152 284.949 54.7401C284.575 54.3281 284.057 54.1222 283.394 54.1222C282.944 54.1222 282.544 54.2216 282.193 54.4205C281.848 54.6146 281.575 54.8963 281.377 55.2656C281.182 55.6349 281.085 56.0824 281.085 56.608ZM295.776 63V48.4545H298.411V55.1378H298.589L304.264 48.4545H307.481L301.856 54.9815L307.531 63H304.363L300.024 56.7642L298.411 58.6676V63H295.776ZM313.156 63.2131C312.09 63.2131 311.167 62.9787 310.386 62.5099C309.605 62.0412 308.999 61.3854 308.568 60.5426C308.142 59.6998 307.928 58.715 307.928 57.5881C307.928 56.4612 308.142 55.474 308.568 54.6264C308.999 53.7789 309.605 53.1207 310.386 52.652C311.167 52.1832 312.09 51.9489 313.156 51.9489C314.221 51.9489 315.144 52.1832 315.926 52.652C316.707 53.1207 317.311 53.7789 317.737 54.6264C318.168 55.474 318.383 56.4612 318.383 57.5881C318.383 58.715 318.168 59.6998 317.737 60.5426C317.311 61.3854 316.707 62.0412 315.926 62.5099C315.144 62.9787 314.221 63.2131 313.156 63.2131ZM313.17 61.1534C313.748 61.1534 314.231 60.9948 314.619 60.6776C315.007 60.3556 315.296 59.9247 315.485 59.3849C315.679 58.8452 315.776 58.2438 315.776 57.581C315.776 56.9134 315.679 56.3097 315.485 55.7699C315.296 55.2254 315.007 54.7921 314.619 54.4702C314.231 54.1482 313.748 53.9872 313.17 53.9872C312.578 53.9872 312.086 54.1482 311.693 54.4702C311.304 54.7921 311.013 55.2254 310.819 55.7699C310.63 56.3097 310.535 56.9134 310.535 57.581C310.535 58.2438 310.63 58.8452 310.819 59.3849C311.013 59.9247 311.304 60.3556 311.693 60.6776C312.086 60.9948 312.578 61.1534 313.17 61.1534ZM320.565 63V52.0909H323.136V63H320.565ZM321.858 50.5426C321.451 50.5426 321.1 50.4077 320.807 50.1378C320.513 49.8632 320.366 49.5341 320.366 49.1506C320.366 48.7623 320.513 48.4332 320.807 48.1634C321.1 47.8887 321.451 47.7514 321.858 47.7514C322.27 47.7514 322.62 47.8887 322.909 48.1634C323.202 48.4332 323.349 48.7623 323.349 49.1506C323.349 49.5341 323.202 49.8632 322.909 50.1378C322.62 50.4077 322.27 50.5426 321.858 50.5426ZM334.402 54.9744L332.058 55.2301C331.992 54.9934 331.876 54.7708 331.71 54.5625C331.549 54.3542 331.332 54.1861 331.057 54.0582C330.782 53.9304 330.446 53.8665 330.048 53.8665C329.513 53.8665 329.064 53.9825 328.699 54.2145C328.339 54.4465 328.162 54.7472 328.166 55.1165C328.162 55.4337 328.278 55.6918 328.514 55.8906C328.756 56.0895 329.154 56.2528 329.708 56.3807L331.568 56.7784C332.601 57.0009 333.368 57.3537 333.869 57.8366C334.376 58.3196 334.632 58.9517 334.637 59.733C334.632 60.4195 334.431 61.0256 334.033 61.5511C333.64 62.072 333.093 62.4792 332.392 62.7727C331.691 63.0663 330.887 63.2131 329.977 63.2131C328.642 63.2131 327.567 62.9337 326.753 62.375C325.939 61.8116 325.453 61.0279 325.297 60.0241L327.804 59.7827C327.918 60.2751 328.159 60.6468 328.529 60.8977C328.898 61.1487 329.378 61.2741 329.97 61.2741C330.581 61.2741 331.071 61.1487 331.441 60.8977C331.815 60.6468 332.002 60.3366 332.002 59.9673C332.002 59.6548 331.881 59.3968 331.639 59.1932C331.403 58.9896 331.033 58.8333 330.531 58.7244L328.671 58.3338C327.624 58.116 326.85 57.7491 326.348 57.233C325.846 56.7121 325.598 56.054 325.602 55.2585C325.598 54.5862 325.78 54.0038 326.149 53.5114C326.523 53.0142 327.042 52.6307 327.705 52.3608C328.372 52.0862 329.142 51.9489 330.013 51.9489C331.291 51.9489 332.298 52.2211 333.031 52.7656C333.77 53.3101 334.227 54.0464 334.402 54.9744ZM339.328 56.608V63H336.757V48.4545H339.271V53.9446H339.399C339.654 53.3291 340.05 52.8437 340.585 52.4886C341.124 52.1288 341.811 51.9489 342.644 51.9489C343.402 51.9489 344.062 52.1075 344.626 52.4247C345.189 52.742 345.625 53.206 345.933 53.8168C346.245 54.4276 346.401 55.1733 346.401 56.054V63H343.83V56.4517C343.83 55.7178 343.641 55.1473 343.262 54.7401C342.888 54.3281 342.363 54.1222 341.686 54.1222C341.231 54.1222 340.824 54.2216 340.464 54.4205C340.109 54.6146 339.829 54.8963 339.626 55.2656C339.427 55.6349 339.328 56.0824 339.328 56.608ZM349.022 63V52.0909H351.593V63H349.022ZM350.315 50.5426C349.908 50.5426 349.557 50.4077 349.264 50.1378C348.97 49.8632 348.823 49.5341 348.823 49.1506C348.823 48.7623 348.97 48.4332 349.264 48.1634C349.557 47.8887 349.908 47.7514 350.315 47.7514C350.727 47.7514 351.077 47.8887 351.366 48.1634C351.66 48.4332 351.806 48.7623 351.806 49.1506C351.806 49.5341 351.66 49.8632 351.366 50.1378C351.077 50.4077 350.727 50.5426 350.315 50.5426Z" fill="url(#paint1_linear_1_4)"/>
<defs>
<linearGradient id="paint0_linear_1_4" x1="78.2416" y1="6.20455" x2="280.013" y2="33.3073" gradientUnits="userSpaceOnUse">
<stop stop-color="#BC1313"/>
<stop offset="1" stop-color="#3F3BF9"/>
</linearGradient>
<linearGradient id="paint1_linear_1_4" x1="-59.903" y1="55.6923" x2="396.574" y2="158.929" gradientUnits="userSpaceOnUse">
<stop stop-color="#8F8061"/>
<stop offset="1" stop-color="#256775"/>
</linearGradient>
</defs>
</svg>
